# xmcd CD database file
#
# Track frame offsets:
#	150
#	28162
#	42179
#	59609
#	71960
#	82567
#	97341
#	110455
#	116074
#	130859
#	149144
#	168999
#	182008
#	189190
#	195868
#	203720
#	217607
#	227245
#
# Disc length: 3213 seconds
#
# Revision: 9
# Processed by: cddbd v1.5.2PL0 Copyright (c) Steve Scherf et al.
# Submitted via: CDex 1.70beta2
#
DISCID=010c8b12
DTITLE=Paul and Vic  with friends - Red Cave CD1
DYEAR=1900
DGENRE=New Age
TTITLE0=Bierkrebs
TTITLE1=Morgengrauen
TTITLE2=pommes fittes
TTITLE3=Nur Wir
TTITLE4=diving
TTITLE5=trivial
TTITLE6=privat
TTITLE7=hawaii
TTITLE8=Sansibar
TTITLE9=parents
TTITLE10=wochenend
TTITLE11=red road
TTITLE12=a passant
TTITLE13=Dog walk
TTITLE14=working frust
TTITLE15=huge bear
TTITLE16=Please
TTITLE17=PCheck in
EXTD=
EXTT0=
EXTT1=
EXTT2=
EXTT3=
EXTT4=
EXTT5=
EXTT6=
EXTT7=
EXTT8=
EXTT9=
EXTT10=
EXTT11=
EXTT12=
EXTT13=
EXTT14=
EXTT15=
EXTT16=
EXTT17=
PLAYORDER=
